<?xml version="1.0" encoding="utf-8"?>
<!-- Generator: Adobe Illustrator 24.0.1, SVG Export Plug-In . SVG Version: 6.00 Build 0)  -->
<svg version="1.1" id="Calque_1" xmlns="http://www.w3.org/2000/svg" xmlns:xlink="http://www.w3.org/1999/xlink" x="0px" y="0px"
	 viewBox="0 0 320 320" style="enable-background:new 0 0 320 320;" xml:space="preserve">
<style type="text/css">
	.st0{fill:#FFFFFF;}
	.st1{fill:#000000;}
</style>
<g>
	<path d="M267.9,48c2.2,0,4.1,1.8,4.1,4.1V268c0,2.2-1.8,4.1-4.1,4.1H52.1c-2.2,0-4.1-1.8-4.1-4.1V52.1c0-2.2,1.8-4.1,4.1-4.1H267.9
		 M267.9,32H52.1C41,32,32,41,32,52.1V268c0,11.1,9,20.1,20.1,20.1H268c11.1,0,20.1-9,20.1-20.1V52.1C288,41,279,32,267.9,32
		L267.9,32z"/>
</g>
<g>
	<circle class="st0" cx="120" cy="120" r="36"/>
</g>
<g>
	<path d="M8,128h64.7c-0.4-2.6-0.7-5.3-0.7-8s0.2-5.4,0.7-8H8.3c-4.3,0-8,3.2-8.3,7.5C-0.3,124.1,3.4,128,8,128z"/>
	<path d="M128,72.7V8.3c0-4.3-3.2-8-7.5-8.3c-0.2,0-0.3,0-0.5,0c-4.4,0-8,3.6-8,8v64.7c2.6-0.4,5.3-0.7,8-0.7S125.4,72.2,128,72.7z"
		/>
	<path d="M319.9,120.5c0.3-4.6-3.4-8.5-8-8.5H208V8.3c0-4.3-3.2-8-7.5-8.3c-0.2,0-0.3,0-0.5,0c-4.4,0-8,3.6-8,8v104h-24.6
		c0.4,2.6,0.7,5.3,0.7,8s-0.2,5.4-0.7,8H192v24.6c2.6-0.4,5.3-0.7,8-0.7s5.4,0.2,8,0.7V128h103.6C315.9,128,319.6,124.8,319.9,120.5
		z"/>
	<path d="M192,247.3v64.4c0,4.3,3.2,8,7.5,8.3c0.2,0,0.3,0,0.5,0c4.4,0,8-3.6,8-8v-64.7c-2.6,0.4-5.3,0.7-8,0.7
		S194.6,247.8,192,247.3z"/>
	<path d="M128,192v-24.7c-2.6,0.4-5.3,0.7-8,0.7s-5.4-0.2-8-0.7V192H8.3c-4.3,0-8,3.2-8.3,7.5c-0.3,4.6,3.4,8.5,8,8.5h104v103.6
		c0,4.3,3.2,8,7.5,8.3c0.2,0,0.3,0,0.5,0c4.4,0,8-3.6,8-8V208h24.6c-0.4-2.6-0.7-5.3-0.7-8s0.2-5.4,0.7-8H128z"/>
	<path d="M320,199.5c-0.3-4.3-4-7.5-8.3-7.5h-64.4c0.4,2.6,0.7,5.3,0.7,8s-0.2,5.4-0.7,8H312C316.6,208,320.3,204.1,320,199.5z"/>
</g>
<g>
	<circle class="st1" cx="200" cy="200" r="36"/>
</g>
</svg>
