<?xml version="1.0" encoding="utf-8"?>
<!-- Generator: Adobe Illustrator 24.0.1, SVG Export Plug-In . SVG Version: 6.00 Build 0)  -->
<svg version="1.1" id="Calque_1" xmlns="http://www.w3.org/2000/svg" xmlns:xlink="http://www.w3.org/1999/xlink" x="0px" y="0px"
	 viewBox="0 0 512 512" style="enable-background:new 0 0 512 512;" xml:space="preserve">
<style type="text/css">
	.st0{fill:#FFFFFF;}
	.st1{fill:#CC7F4E;}
</style>
<g>
	<path d="M363.9,144c2.2,0,4.1,1.8,4.1,4.1v215.9c0,2.2-1.8,4.1-4.1,4.1H148.1c-2.2,0-4.1-1.8-4.1-4.1V148.1c0-2.2,1.8-4.1,4.1-4.1
		H363.9 M363.9,128H148.1c-11.1,0-20.1,9-20.1,20.1v215.9c0,11.1,9,20.1,20.1,20.1h215.9c11.1,0,20.1-9,20.1-20.1V148.1
		C384,137,375,128,363.9,128L363.9,128z"/>
</g>
<g>
	<g>
		<path class="st0" d="M168.7,208h-64.4c-4.3,0-8,3.2-8.3,7.5c-0.3,4.6,3.4,8.5,8,8.5h64.7c-0.4-2.6-0.7-5.3-0.7-8
			S168.2,210.6,168.7,208z"/>
		<path d="M168.7,208h-64.4c-4.3,0-8,3.2-8.3,7.5c-0.3,4.6,3.4,8.5,8,8.5h64.7c-0.4-2.6-0.7-5.3-0.7-8S168.2,210.6,168.7,208
			L168.7,208z"/>
	</g>
	<g>
		<path class="st0" d="M216,160L216,160z"/>
		<path d="M216,96c-4.4,0-8,3.6-8,8v64.7c2.6-0.4,5.3-0.7,8-0.7s5.4,0.2,8,0.7v-64.4c0-4.3-3.2-8-7.5-8.3C216.3,96,216.2,96,216,96
			L216,96z"/>
	</g>
</g>
<g>
	<circle class="st1" cx="216" cy="216" r="36"/>
</g>
<g>
	<g>
		<polygon class="st0" points="296,216 288,216 296,216 296,208 296,216 304,216 296,216 296,224 296,240 		"/>
		<path d="M296,96c-4.4,0-8,3.6-8,8v104c0,0,0,0,0,0h-24.6c0.4,2.6,0.7,5.3,0.7,8c0,2.7-0.2,5.4-0.7,8H288c0,0,0,0,0,0v24.6
			c2.6-0.4,5.3-0.7,8-0.7s5.4,0.2,8,0.7V224c0,0,0,0,0,0h103.6c4.3,0,8-3.2,8.3-7.5c0.3-4.6-3.4-8.5-8-8.5H304c0,0,0,0,0,0V104.3
			c0-4.3-3.2-8-7.5-8.3C296.3,96,296.2,96,296,96L296,96z"/>
	</g>
	<g>
		<path class="st0" d="M296,407.7L296,407.7z"/>
		<path d="M304,343.3c-2.6,0.4-5.3,0.7-8,0.7s-5.4-0.2-8-0.7v64.4c0,4.3,3.2,8,7.5,8.3c0.2,0,0.3,0,0.5,0c4.4,0,8-3.6,8-8V343.3
			L304,343.3z"/>
	</g>
	<g>
		<polygon class="st0" points="216,296 208,296 216,296 216,288 216,296 224,296 216,296 216,304 216,407.7 		"/>
		<path d="M224,263.3c-2.6,0.4-5.3,0.7-8,0.7c-2.7,0-5.4-0.2-8-0.7V288c0,0,0,0,0,0H104.3c-4.3,0-8,3.2-8.3,7.5
			c-0.3,4.6,3.4,8.5,8,8.5h104c0,0,0,0,0,0v103.6c0,4.3,3.2,8,7.5,8.3c0.2,0,0.3,0,0.5,0c4.4,0,8-3.6,8-8V304c0,0,0,0,0,0h24.6
			c-0.4-2.6-0.7-5.3-0.7-8c0-2.7,0.2-5.4,0.7-8H224c0,0,0,0,0,0V263.3L224,263.3z"/>
	</g>
	<g>
		<path class="st0" d="M407.7,288h-64.4c0.4,2.6,0.7,5.3,0.7,8s-0.2,5.4-0.7,8H408c4.6,0,8.3-3.9,8-8.5
			C415.7,291.2,412,288,407.7,288z"/>
		<path d="M407.7,288h-64.4c0.4,2.6,0.7,5.3,0.7,8s-0.2,5.4-0.7,8H408c4.6,0,8.3-3.9,8-8.5C415.7,291.2,412,288,407.7,288L407.7,288
			z"/>
	</g>
</g>
<g>
	<circle class="st1" cx="296" cy="296" r="36"/>
</g>
</svg>
